<svg id="SvgjsSvg1025" width="288" height="288" xmlns="http://www.w3.org/2000/svg" version="1.1" xmlns:xlink="http://www.w3.org/1999/xlink" xmlns:svgjs="http://svgjs.com/svgjs"><defs id="SvgjsDefs1026"></defs><g id="SvgjsG1027"><svg xmlns="http://www.w3.org/2000/svg" width="288" height="288" enable-background="new 0 0 512 512" viewBox="0 0 512 512"><path d="m488.468 0h-464.936c-12.975 0-23.532 10.556-23.532 23.532v464.936c0 12.975 10.557 23.532 23.532 23.532h464.936c12.975 0 23.532-10.557 23.532-23.532v-464.936c0-12.976-10.557-23.532-23.532-23.532zm8.532 488.468c0 4.705-3.828 8.532-8.532 8.532h-184.887v-16.548c0-4.142-3.358-7.5-7.5-7.5s-7.5 3.358-7.5 7.5v16.548h-25.081v-16.548c0-4.142-3.358-7.5-7.5-7.5s-7.5 3.358-7.5 7.5v16.548h-25.081v-16.548c0-4.142-3.358-7.5-7.5-7.5s-7.5 3.358-7.5 7.5v16.548h-184.887c-4.705 0-8.532-3.828-8.532-8.532v-464.936c0-4.705 3.828-8.532 8.532-8.532h184.887v16.548c0 4.142 3.358 7.5 7.5 7.5s7.5-3.358 7.5-7.5v-16.548h25.081v16.548c0 4.142 3.358 7.5 7.5 7.5s7.5-3.358 7.5-7.5v-16.548h25.081v16.548c0 4.142 3.358 7.5 7.5 7.5s7.5-3.358 7.5-7.5v-16.548h184.887c4.705 0 8.532 3.827 8.532 8.532z" fill="#ffffff" class="color000 svgShape"></path><path d="m424.339 32.064h-72.149c-19.251 0-35.325 13.824-38.839 32.065h-114.702c-3.514-18.24-19.589-32.065-38.839-32.065h-72.149c-30.656 0-55.597 24.941-55.597 55.597v336.677c0 30.656 24.94 55.597 55.597 55.597h72.149c19.25 0 35.325-13.824 38.839-32.064h114.701c3.514 18.24 19.589 32.064 38.839 32.064h72.149c30.656 0 55.597-24.94 55.597-55.597 0-4.142-3.358-7.5-7.5-7.5s-7.5 3.358-7.5 7.5c0 22.385-18.211 40.597-40.597 40.597h-72.148c-10.929 0-20.21-7.177-23.387-17.064h95.536c12.976 0 23.532-10.557 23.532-23.532v-336.678c0-12.976-10.557-23.532-23.532-23.532h-95.536c3.177-9.887 12.458-17.065 23.387-17.065h72.149c22.385 0 40.597 18.212 40.597 40.597v304.615c0 4.142 3.358 7.5 7.5 7.5s7.5-3.358 7.5-7.5v-304.615c0-30.656-24.941-55.597-55.597-55.597zm8.532 55.597v336.677c0 4.705-3.828 8.532-8.532 8.532h-336.678c-4.705 0-8.532-3.828-8.532-8.532v-288.58c0-4.142-3.358-7.5-7.5-7.5s-7.5 3.358-7.5 7.5v288.58c0 12.976 10.557 23.532 23.532 23.532h95.536c-3.177 9.887-12.458 17.064-23.387 17.064h-72.149c-22.385 0-40.597-18.211-40.597-40.597v-336.676c0-22.385 18.211-40.597 40.597-40.597h72.149c10.929 0 20.21 7.177 23.387 17.065h-95.536c-12.976 0-23.532 10.556-23.532 23.532v16.033c0 4.142 3.358 7.5 7.5 7.5s7.5-3.358 7.5-7.5v-16.033c0-4.705 3.828-8.532 8.532-8.532h336.678c4.704 0 8.532 3.828 8.532 8.532z" fill="#ffffff" class="color000 svgShape"></path><path d="M173.224 218.595c7.456 0 14.647 2.196 20.795 6.349 3.433 2.319 8.095 1.416 10.414-2.016s1.416-8.094-2.016-10.413c-8.638-5.835-18.732-8.92-29.192-8.92-28.785 0-52.203 23.418-52.203 52.202s23.417 52.203 52.202 52.203c11.398 0 21.607-3.726 29.521-10.775 1.552-1.382 3.028-2.905 4.387-4.525 2.662-3.174 2.247-7.904-.927-10.566-3.173-2.662-7.904-2.247-10.566.927-.893 1.065-1.859 2.061-2.87 2.962-5.198 4.629-11.774 6.977-19.545 6.977-20.514 0-37.203-16.689-37.203-37.202s16.689-37.203 37.203-37.203zM226.168 300.5c0 4.142 3.358 7.5 7.5 7.5s7.5-3.358 7.5-7.5v-31.376c5.742-.031 13.42-.069 17.394-.069 18.32 0 33.225-14.683 33.225-32.73 0-18.048-14.904-32.73-33.225-32.73h-24.894c-1.993 0-3.905.793-5.312 2.205s-2.195 3.326-2.188 5.319zm32.394-81.905c9.879 0 18.225 8.119 18.225 17.73s-8.346 17.73-18.225 17.73c-3.954 0-11.527.037-17.263.068-.031-5.895-.069-13.763-.069-17.798 0-3.409-.021-11.596-.04-17.73zM317.104 202.965c-4.142 0-7.5 3.358-7.5 7.5v60.928c0 20.88 16.98 37.235 38.657 37.235h1.799c21.677 0 38.657-16.356 38.657-37.235v-60.928c0-4.142-3.358-7.5-7.5-7.5s-7.5 3.358-7.5 7.5v60.928c0 12.676-10.17 22.235-23.657 22.235h-1.799c-13.487 0-23.657-9.559-23.657-22.235v-60.928c0-4.142-3.358-7.5-7.5-7.5zM127.742 183.339h256.517c4.142 0 7.5-3.358 7.5-7.5s-3.358-7.5-7.5-7.5h-256.517c-4.142 0-7.5 3.358-7.5 7.5s3.358 7.5 7.5 7.5zM127.742 343.661h256.517c4.142 0 7.5-3.358 7.5-7.5s-3.358-7.5-7.5-7.5h-256.517c-4.142 0-7.5 3.358-7.5 7.5s3.358 7.5 7.5 7.5z" fill="#ffffff" class="color000 svgShape"></path></svg></g></svg>